<svg version="1.1" viewBox="0.0 0.0 1080.0 1080.0" fill="none" stroke="none" stroke-linecap="square" stroke-miterlimit="10" xmlns:xlink="http://www.w3.org/1999/xlink" xmlns="http://www.w3.org/2000/svg"><clipPath id="p.0"><path d="m0 0l1080.0 0l0 1080.0l-1080.0 0l0 -1080.0z" clip-rule="nonzero"/></clipPath><g clip-path="url(#p.0)"><path fill="#000000" fill-opacity="0.0" d="m0 0l1080.0 0l0 1080.0l-1080.0 0z" fill-rule="evenodd"/><path fill="#000000" d="m-3.8233936 -8.793428l1083.9055 0l0 1089.2284l-1083.9055 0z" fill-rule="evenodd"/><path stroke="#000000" stroke-width="1.0" stroke-linejoin="round" stroke-linecap="butt" d="m-3.8233936 -8.793428l1083.9055 0l0 1089.2284l-1083.9055 0z" fill-rule="evenodd"/><defs><radialGradient id="p.1" gradientUnits="userSpaceOnUse" gradientTransform="matrix(18.271301791610387 0.0 0.0 18.271301791610387 0.0 0.0)" spreadMethod="pad" cx="45.22383720188449" cy="13.932179437537167" fx="45.22383720188449" fy="13.932179437537167" r="18.27130126953125"><stop offset="0.0" stop-color="#1077d2"/><stop offset="1.0" stop-color="#093153"/></radialGradient></defs><path fill="url(#p.1)" d="m588.5976 254.55905l0 0c0 -129.46075 106.42224 -234.40944 237.7008 -234.40944l0 0c63.042175 0 123.50226 24.696638 168.07983 68.65694c44.577576 43.960304 69.62091 103.58326 69.62091 165.7525l0 0c0 129.46075 -106.42224 234.40945 -237.70074 234.40945l0 0c-131.27856 0 -237.7008 -104.9487 -237.7008 -234.40945z" fill-rule="evenodd"/><path stroke="#000000" stroke-width="1.0" stroke-linejoin="round" stroke-linecap="butt" d="m588.5976 254.55905l0 0c0 -129.46075 106.42224 -234.40944 237.7008 -234.40944l0 0c63.042175 0 123.50226 24.696638 168.07983 68.65694c44.577576 43.960304 69.62091 103.58326 69.62091 165.7525l0 0c0 129.46075 -106.42224 234.40945 -237.70074 234.40945l0 0c-131.27856 0 -237.7008 -104.9487 -237.7008 -234.40945z" fill-rule="evenodd"/><defs><linearGradient id="p.2" gradientUnits="userSpaceOnUse" gradientTransform="matrix(11.797524930639435 0.0 0.0 11.797524930639435 0.0 0.0)" spreadMethod="pad" x1="40.31807909740147" y1="32.36000820963993" x2="40.31803738305994" y2="44.157533140205615"><stop offset="0.0" stop-color="#4e29aa"/><stop offset="1.0" stop-color="#1e123d"/></linearGradient></defs><path fill="url(#p.2)" d="m475.65353 451.35904l0 0c0 -38.433777 31.720825 -69.590546 70.85043 -69.590546l0 0c18.79065 0 36.811768 7.331848 50.098755 20.382599c13.287048 13.050781 20.751587 30.751404 20.751587 49.207947l0 0c0 38.433807 -31.720764 69.590546 -70.85034 69.590546l0 0c-39.12961 0 -70.85043 -31.156738 -70.85043 -69.590546z" fill-rule="evenodd"/><path stroke="#000000" stroke-width="1.0" stroke-linejoin="round" stroke-linecap="butt" d="m475.65353 451.35904l0 0c0 -38.433777 31.720825 -69.590546 70.85043 -69.590546l0 0c18.79065 0 36.811768 7.331848 50.098755 20.382599c13.287048 13.050781 20.751587 30.751404 20.751587 49.207947l0 0c0 38.433807 -31.720764 69.590546 -70.85034 69.590546l0 0c-39.12961 0 -70.85043 -31.156738 -70.85043 -69.590546z" fill-rule="evenodd"/><defs><linearGradient id="p.3" gradientUnits="userSpaceOnUse" gradientTransform="matrix(-20.049557169869086 8.69828284465656 -8.69828284465656 -20.049557169869086 0.0 0.0)" spreadMethod="pad" x1="-7.037060837598907" y1="-49.039975073173345" x2="-7.037133081838172" y2="-28.990417903434416"><stop offset="0.0" stop-color="#db0000"/><stop offset="1.0" stop-color="#540303"/></linearGradient></defs><path fill="url(#p.3)" d="m480.44357 721.0312l0 0c49.340363 110.49176 -3.5887756 240.37854 -118.22049 290.11023l0 0c-55.048065 23.882019 -117.25395 25.707947 -172.93306 5.0759277c-55.679108 -20.631958 -100.2705 -62.031677 -123.96456 -115.091675l0 0c-49.34034 -110.4917 3.588768 -240.37848 118.22047 -290.11023l0 0c114.631714 -49.73169 247.55731 -0.47595215 296.89764 110.01575z" fill-rule="evenodd"/><path stroke="#000000" stroke-width="1.0" stroke-linejoin="round" stroke-linecap="butt" d="m480.44357 721.0312l0 0c49.340363 110.49176 -3.5887756 240.37854 -118.22049 290.11023l0 0c-55.048065 23.882019 -117.25395 25.707947 -172.93306 5.0759277c-55.679108 -20.631958 -100.2705 -62.031677 -123.96456 -115.091675l0 0c-49.34034 -110.4917 3.588768 -240.37848 118.22047 -290.11023l0 0c114.631714 -49.73169 247.55731 -0.47595215 296.89764 110.01575z" fill-rule="evenodd"/><defs><radialGradient id="p.4" gradientUnits="userSpaceOnUse" gradientTransform="matrix(-9.27218666910384 4.017947556451454 -4.017947556451454 -9.27218666910384 0.0 0.0)" spreadMethod="pad" cx="-9.857777667962084" cy="-94.18066606445878" fx="-9.857777667962084" fy="-94.18066606445878" r="9.272186279296875"><stop offset="0.0" stop-color="#4e29aa"/><stop offset="1.0" stop-color="#1e123d"/></radialGradient></defs><path fill="url(#p.4)" d="m531.7059 806.8338l0 0c14.663818 32.789185 -1.1577759 71.37732 -35.338562 86.188965l0 0c-16.414185 7.112793 -34.95343 7.6792603 -51.539337 1.574707c-16.585876 -6.104492 -29.859802 -18.379944 -36.90161 -34.125916l0 0c-14.663818 -32.789185 1.1578064 -71.37726 35.338593 -86.188965l0 0c34.180756 -14.8116455 73.7771 -0.23797607 88.44092 32.55121z" fill-rule="evenodd"/><path stroke="#000000" stroke-width="1.0" stroke-linejoin="round" stroke-linecap="butt" d="m531.7059 806.8338l0 0c14.663818 32.789185 -1.1577759 71.37732 -35.338562 86.188965l0 0c-16.414185 7.112793 -34.95343 7.6792603 -51.539337 1.574707c-16.585876 -6.104492 -29.859802 -18.379944 -36.90161 -34.125916l0 0c-14.663818 -32.789185 1.1578064 -71.37726 35.338593 -86.188965l0 0c34.180756 -14.8116455 73.7771 -0.23797607 88.44092 32.55121z" fill-rule="evenodd"/><g filter="url(#shadowFilter-p.5)"><use xlink:href="#p.5" transform=""/></g><defs><filter id="shadowFilter-p.5" filterUnits="userSpaceOnUse"><feGaussianBlur in="SourceAlpha" stdDeviation="24.5" result="blur"/><feComponentTransfer in="blur" color-interpolation-filters="sRGB"><feFuncR type="linear" slope="0" intercept="1.0"/><feFuncG type="linear" slope="0" intercept="0.8980392"/><feFuncB type="linear" slope="0" intercept="0.6"/><feFuncA type="linear" slope="0.64" intercept="0"/></feComponentTransfer></filter></defs><g id="p.5"><path fill="#000000" fill-opacity="0.0" d="m114.711235 332.53607l846.83466 0l0 414.92914l-846.83466 0z" fill-rule="evenodd"/><path fill="#ffff00" d="m183.90907 407.9223l18.5625 0l58.781265 104.015625l58.546875 -104.015625l17.8125 0l0 187.84375l-153.70314 0l0 -187.84375zm20.015625 168.07812l113.67189 0l0 -123.625l-48.921875 86.09375l-15.07814 0l-49.671875 -87.59375l0 125.125zm176.3207 -167.8125l139.7031 0l0 55.40625l-82.765594 0l0 11.8125l68.75 0l0 53.125l-68.75 0l0 12.078125l82.765594 0l0 55.40625l-139.7031 0l0 -187.82812zm247.52383 187.82812l0 -132.42188l-66.96881 0l0 -55.40625l153.70319 0l0 55.40625l-66.96875 0l0 132.42188l-19.765625 0zm290.13318 0l-183.60938 0l91.796875 -199.0l91.8125 199.0zm-152.29688 -20.015625l120.984375 0l-60.5 -131.28125l-60.484375 131.28125z" fill-rule="nonzero"/></g></g></svg>