<svg version="1.1" viewBox="0.0 0.0 1080.0 1080.0" fill="none" stroke="none" stroke-linecap="square" stroke-miterlimit="10" xmlns:xlink="http://www.w3.org/1999/xlink" xmlns="http://www.w3.org/2000/svg"><clipPath id="p.0"><path d="m0 0l1080.0 0l0 1080.0l-1080.0 0l0 -1080.0z" clip-rule="nonzero"/></clipPath><g clip-path="url(#p.0)"><path fill="#000000" fill-opacity="0.0" d="m0 0l1080.0 0l0 1080.0l-1080.0 0z" fill-rule="evenodd"/><path fill="#000000" d="m-3.8233936 -8.793428l1083.9055 0l0 1089.2284l-1083.9055 0z" fill-rule="evenodd"/><path stroke="#000000" stroke-width="1.0" stroke-linejoin="round" stroke-linecap="butt" d="m-3.8233936 -8.793428l1083.9055 0l0 1089.2284l-1083.9055 0z" fill-rule="evenodd"/><defs><radialGradient id="p.1" gradientUnits="userSpaceOnUse" gradientTransform="matrix(-24.896665540840875 0.0 0.0 -24.896665540840875 0.0 0.0)" spreadMethod="pad" cx="-21.610815208872264" cy="-31.281381168606153" fx="-21.610815208872264" fy="-31.281381168606153" r="24.896665573120117"><stop offset="0.0" stop-color="#4e29aa"/><stop offset="1.0" stop-color="#1e123d"/></radialGradient></defs><path fill="url(#p.1)" d="m1079.6218 1080.2863l-1083.1692 0l0 -489.7898c541.58453 0 541.58453 -186.6189 1083.1692 -80.58542z" fill-rule="evenodd"/><g filter="url(#shadowFilter-p.2)"><use xlink:href="#p.2" transform="matrix(1.0 0.0 0.0 1.0 0.0 49.0)"/></g><defs><filter id="shadowFilter-p.2" filterUnits="userSpaceOnUse"><feGaussianBlur in="SourceAlpha" stdDeviation="24.5" result="blur"/><feComponentTransfer in="blur" color-interpolation-filters="sRGB"><feFuncR type="linear" slope="0" intercept="0.91764706"/><feFuncG type="linear" slope="0" intercept="0.6"/><feFuncB type="linear" slope="0" intercept="0.6"/><feFuncA type="linear" slope="0.37" intercept="0"/></feComponentTransfer></filter></defs><g id="p.2"><path fill="#000000" fill-opacity="0.0" d="m113.39627 336.3576l846.8346 0l0 414.92914l-846.8346 0z" fill-rule="evenodd"/><path fill="#ff0000" d="m249.12537 477.9157l-17.71875 -65.90625l118.984375 0l-50.46875 187.82812l-18.0625 0l-22.421875 -83.4375l-22.421875 83.4375l-18.046875 0l-50.46875 -187.82812l20.640625 0l38.734375 144.5625l21.25 -78.65625zm75.21875 -45.890625l-66.90625 0l11.953125 44.515625l21.609375 80.03125l33.34375 -124.546875zm115.16443 -20.015625l17.015625 0l77.1875 187.82812l-21.640625 0l-23.9375 -58.578125l-80.25 0l-24.1875 58.578125l-21.390625 0l77.203125 -187.82812zm-23.453125 109.5l63.90625 0l-32.0625 -78.015625l-31.84375 78.015625zm155.8363 -109.5l64.1875 156.10938l64.1875 -156.10938l21.390625 0l-77.1875 187.82812l-17.03125 0l-77.1875 -187.82812l21.640625 0zm186.47693 0l135.375 0l0 20.015625l-115.359375 0l0 61.21875l100.328125 0l0 20.015625l-100.328125 0l0 66.5625l115.359375 0l0 20.015625l-135.375 0l0 -187.82812z" fill-rule="nonzero"/></g></g></svg>